HIERARCHY
ROOT joint_Root
{
  OFFSET 0 0 0
  CHANNELS 6 Xposition Yposition Zposition Zrotation Xrotation Yrotation
  JOINT Hips
  {
    OFFSET 0.847027 93.984 -452.225
    CHANNELS 6 Xposition Yposition Zposition Zrotation Xrotation Yrotation
    JOINT Spine
    {
      OFFSET 15.7357 0 0
      CHANNELS 6 Xposition Yposition Zposition Zrotation Xrotation Yrotation
      JOINT Chest
      {
        OFFSET 8.98455 -0.406207 0
        CHANNELS 6 Xposition Yposition Zposition Zrotation Xrotation Yrotation
        JOINT Neck
        {
          OFFSET 16.3773 0 0
          CHANNELS 6 Xposition Yposition Zposition Zrotation Xrotation Yrotation
          JOINT Head
          {
            OFFSET 6.45672 0 0
            CHANNELS 6 Xposition Yposition Zposition Zrotation Xrotation Yrotation
            End Site
            {
              OFFSET 0 0 0
            }
          }
        }
        JOINT Shoulder_L
        {
          OFFSET 12.9942 -0.242716 4.98039
          CHANNELS 6 Xposition Yposition Zposition Zrotation Xrotation Yrotation
          JOINT UpperArm_L
          {
            OFFSET 5.34809 0 0
            CHANNELS 6 Xposition Yposition Zposition Zrotation Xrotation Yrotation
            JOINT LowerArm_L
            {
              OFFSET 24.3286 1.87007e-05 0
              CHANNELS 6 Xposition Yposition Zposition Zrotation Xrotation Yrotation
              JOINT Hand_L
              {
                OFFSET 22.2916 0 0
                CHANNELS 6 Xposition Yposition Zposition Zrotation Xrotation Yrotation
                End Site
                {
                  OFFSET 0 0 0
                }
              }
            }
          }
        }
        JOINT Shoulder_R
        {
          OFFSET 12.9945 -0.242716 -4.98039
          CHANNELS 6 Xposition Yposition Zposition Zrotation Xrotation Yrotation
          JOINT UpperArm_R
          {
            OFFSET -5.34813 0 0
            CHANNELS 6 Xposition Yposition Zposition Zrotation Xrotation Yrotation
            JOINT LowerArm_R
            {
              OFFSET -24.3289 0.000322201 0
              CHANNELS 6 Xposition Yposition Zposition Zrotation Xrotation Yrotation
              JOINT Hand_R
              {
                OFFSET -22.2915 -0.000108084 0
                CHANNELS 6 Xposition Yposition Zposition Zrotation Xrotation Yrotation
                End Site
                {
                  OFFSET 0 0 0
                }
              }
            }
          }
        }
      }
    }
    JOINT UpperLeg_L
    {
      OFFSET -2.19248 -6.46944 0
      CHANNELS 6 Xposition Yposition Zposition Zrotation Xrotation Yrotation
      JOINT LowerLeg_L
      {
        OFFSET 39.0811 0 -1.23785e-05
        CHANNELS 6 Xposition Yposition Zposition Zrotation Xrotation Yrotation
        JOINT Foot_L
        {
          OFFSET 40.9854 0 -1.26872e-05
          CHANNELS 6 Xposition Yposition Zposition Zrotation Xrotation Yrotation
          JOINT Toes_L
          {
            OFFSET 11.7543 0 0
            CHANNELS 6 Xposition Yposition Zposition Zrotation Xrotation Yrotation
            End Site
            {
              OFFSET 0 0 0
            }
          }
        }
      }
    }
    JOINT UpperLeg_R
    {
      OFFSET -2.19251 6.46944 0
      CHANNELS 6 Xposition Yposition Zposition Zrotation Xrotation Yrotation
      JOINT LowerLeg_R
      {
        OFFSET -39.0811 -0.00228153 -0.0401928
        CHANNELS 6 Xposition Yposition Zposition Zrotation Xrotation Yrotation
        JOINT Foot_R
        {
          OFFSET -40.9854 0 0
          CHANNELS 6 Xposition Yposition Zposition Zrotation Xrotation Yrotation
          JOINT Toes_R
          {
            OFFSET -11.7543 0 0
            CHANNELS 6 Xposition Yposition Zposition Zrotation Xrotation Yrotation
            End Site
            {
              OFFSET 0 0 0
            }
          }
        }
      }
    }
  }
}
MOTION
Frames:	7
Frame Time:	0.0333333
0 0 0 0 0 -0 4.08009 91.1056 13.0026 93.3666 -11.0205 6.05811 15.7357 5.1072e-06 -5.51765e-07 108.697 85.1864 -109.621 8.98455 -0.406207 -4.3199e-07 1.38145 3.1361 -1.88465 16.3773 -1.3905e-06 -6.99897e-07 1.57386 2.22791 -0.75021 6.45672 -1.25837e-06 -1.02172e-07 9.67913 -0.150894 -1.3598 12.9942 -0.242716 4.98039 -92.3342 7.75634 -88.1942 5.34809 -7.22636e-06 -6.2814e-07 -68.6035 22.4776 16.2405 24.3286 1.87007e-05 4.90208e-06 -1.15622 -2.38759 -25.8483 22.2916 -9.88446e-07 4.63217e-06 9.81856 5.54149 -8.31006 12.9945 -0.242716 -4.98039 88.0573 11.3717 -95.2386 -5.34813 -1.25947e-06 -3.79883e-06 -58.7757 15.4754 -0.890869 -24.3289 0.000322201 -8.65921e-06 4.71972 7.591 -32.0111 -22.2915 -0.000108084 -4.47941e-06 6.4517 5.49958 -6.51638 -2.19248 -6.46944 -1.22534e-07 174.649 -4.62126 -9.86952 39.0811 -6.73843e-06 -1.23785e-05 0.0500677 -0.0624624 30.3164 40.9854 -6.48686e-06 -1.26872e-05 4.36467 -5.84179 -63.7762 11.7543 -2.30145e-07 3.05095e-06 -0.408916 -0.55163 -17.6872 -2.19251 6.46944 -1.45247e-06 169.261 -0.306059 171.666 -39.0811 -0.00228153 -0.0401928 0.149341 -0.0671569 64.3204 -40.9854 7.72618e-06 5.99936e-06 -0.344963 -2.56683 -41.8393 -11.7543 -5.6619e-06 -5.58687e-06 0.471772 -0.57789 -22.0605 
0 0 0 0 0 -0 3.9284 91.7506 16.8903 92.1744 -9.0413 6.3624 15.7357 5.1072e-06 -5.51765e-07 99.031 85.2038 -99.4873 8.98455 -0.406207 -4.3199e-07 1.71428 1.52888 -0.934772 16.3773 -1.3905e-06 -6.99897e-07 1.62996 1.93445 -0.84281 6.45672 -1.25837e-06 -1.02172e-07 9.79841 0.437668 -1.15035 12.9942 -0.242716 4.98039 -92.2153 7.73932 -88.9735 5.34809 -7.22636e-06 -6.2814e-07 -66.6342 24.7671 12.6834 24.3286 1.87007e-05 4.90208e-06 -0.916431 -1.77577 -27.3097 22.2916 -9.88446e-07 4.63217e-06 10.4317 5.54432 -8.44014 12.9945 -0.242716 -4.98039 87.9639 11.0418 -94.4843 -5.34813 -1.25947e-06 -3.79883e-06 -60.5739 14.8782 2.56519 -24.3289 0.000322201 -8.65921e-06 4.5322 7.42021 -31.5465 -22.2915 -0.000108084 -4.47941e-06 5.93296 5.50027 -6.54405 -2.19248 -6.46944 -1.22534e-07 175.763 -4.55293 -4.93902 39.0811 -6.73843e-06 -1.23785e-05 0.0429456 -0.0576164 27.147 40.9854 -6.48686e-06 -1.26872e-05 4.90082 -4.08369 -64.3405 11.7543 -2.30145e-07 3.05095e-06 -0.694486 -0.912501 -18.2945 -2.19251 6.46944 -1.45247e-06 171.328 3.19139 168.125 -39.0811 -0.00228153 -0.0401928 0.12007 -0.0553203 63.4331 -40.9854 7.72618e-06 5.99936e-06 1.1751 -4.89727 -45.6595 -11.7543 -5.6619e-06 -5.58687e-06 0.443973 -0.540523 -21.7183 
0 0 0 0 0 -0 3.81387 92.2049 20.4494 91.1684 -6.70812 5.92652 15.7357 5.1072e-06 -5.51765e-07 90.0322 85.353 -90.0756 8.98455 -0.406207 -4.3199e-07 1.528 0.00761039 -0.0867527 16.3773 -1.3905e-06 -6.99897e-07 1.74946 1.20927 -1.02527 6.45672 -1.25837e-06 -1.02172e-07 9.87852 0.861332 -1.02632 12.9942 -0.242716 4.98039 -92.0685 7.77611 -90.0541 5.34809 -7.22636e-06 -6.2814e-07 -64.0782 26.5372 8.96909 24.3286 1.87007e-05 4.90208e-06 -0.562416 -1.01061 -29.1025 22.2916 -9.88446e-07 4.63217e-06 11.1112 5.54741 -8.58441 12.9945 -0.242716 -4.98039 87.8001 10.6219 -93.2277 -5.34813 -1.25947e-06 -3.79883e-06 -62.0211 14.0572 6.08077 -24.3289 0.000322201 -8.65921e-06 4.52341 7.54922 -31.0616 -22.2915 -0.000108084 -4.47941e-06 5.30383 5.50307 -6.6577 -2.19248 -6.46944 -1.22534e-07 176.741 -3.89616 -1.22833 39.0811 -6.73843e-06 -1.23785e-05 0.033366 -0.0476228 24.1046 40.9854 -6.48686e-06 -1.26872e-05 5.19752 -2.47206 -64.563 11.7543 -2.30145e-07 3.05095e-06 -0.869562 -1.14027 -18.8402 -2.19251 6.46944 -1.45247e-06 173.378 7.07159 164.465 -39.0811 -0.00228153 -0.0401928 0.100364 -0.0542184 59.6721 -40.9854 7.72618e-06 5.99936e-06 1.55084 -5.99915 -49.3076 -11.7543 -5.6619e-06 -5.58687e-06 0.417935 -0.505956 -21.4001 
0 0 0 0 0 -0 3.65595 92.4548 23.8212 90.4246 -4.19415 5.27119 15.7357 5.1072e-06 -5.51765e-07 80.2381 85.3853 -80.0173 8.98455 -0.406207 -4.3199e-07 1.33347 -1.57654 0.459671 16.3773 -1.3905e-06 -6.99897e-07 1.75361 0.560815 -1.03642 6.45672 -1.25837e-06 -1.02172e-07 9.74138 1.17673 -0.96463 12.9942 -0.242716 4.98039 -91.9232 7.76197 -91.0382 5.34809 -7.22636e-06 -6.2814e-07 -60.7932 27.7356 4.79718 24.3286 1.87007e-05 4.90208e-06 -0.883692 -1.47489 -30.928 22.2916 -9.88446e-07 4.63217e-06 11.4502 5.5507 -8.73843 12.9945 -0.242716 -4.98039 87.5717 10.5926 -92.0096 -5.34813 -1.25947e-06 -3.79883e-06 -62.8734 13.4357 9.54353 -24.3289 0.000322201 -8.65921e-06 4.49729 7.56579 -30.8596 -22.2915 -0.000108084 -4.47941e-06 5.21853 5.5007 -6.56132 -2.19248 -6.46944 -1.22534e-07 177.622 -3.18128 1.7898 39.0811 -6.73843e-06 -1.23785e-05 0.0244323 -0.0351831 21.4739 40.9854 -6.48686e-06 -1.26872e-05 5.40921 -0.774497 -64.6949 11.7543 -2.30145e-07 3.05095e-06 -0.9313 -1.24666 -19.5413 -2.19251 6.46944 -1.45247e-06 175.456 10.7825 161.583 -39.0811 -0.00228153 -0.0401928 0.0788825 -0.0556922 52.8855 -40.9854 7.72618e-06 5.99936e-06 1.35886 -5.0972 -52.2309 -11.7543 -5.6619e-06 -5.58687e-06 0.410035 -0.495546 -21.304 
0 0 0 0 0 -0 3.41412 92.5024 27.0908 90.0263 -1.91791 4.74834 15.7357 5.1072e-06 -5.51765e-07 72.8253 85.2223 -72.4717 8.98455 -0.406207 -4.3199e-07 1.3741 -2.83993 0.740783 16.3773 -1.3905e-06 -6.99897e-07 1.61987 -0.116971 -1.08366 6.45672 -1.25837e-06 -1.02172e-07 9.52233 1.28398 -0.697841 12.9942 -0.242716 4.98039 -91.7836 7.76003 -92.0135 5.34809 -7.22636e-06 -6.2814e-07 -57.0677 28.0563 0.267646 24.3286 1.87007e-05 4.90208e-06 -1.30119 -2.02518 -32.7318 22.2916 -9.88446e-07 4.63217e-06 11.8084 5.55153 -8.77837 12.9945 -0.242716 -4.98039 87.3227 10.7559 -90.9333 -5.34813 -1.25947e-06 -3.79883e-06 -63.3221 12.3171 12.8139 -24.3289 0.000322201 -8.65921e-06 4.29891 7.3363 -30.4909 -22.2915 -0.000108084 -4.47941e-06 5.09814 5.50319 -6.66248 -2.19248 -6.46944 -1.22534e-07 178.198 -1.97341 4.47894 39.0811 -6.73843e-06 -1.23785e-05 0.0179976 -0.0239939 19.4305 40.9854 -6.48686e-06 -1.26872e-05 5.31894 0.278566 -64.8427 11.7543 -2.30145e-07 3.05095e-06 -0.838204 -1.18425 -20.2455 -2.19251 6.46944 -1.45247e-06 177.305 14.0274 159.797 -39.0811 -0.00228153 -0.0401928 0.0589336 -0.0597909 43.5193 -40.9854 7.72618e-06 5.99936e-06 -0.0234233 -2.90649 -52.9366 -11.7543 -5.6619e-06 -5.58687e-06 0.415134 -0.502262 -21.3661 
0 0 0 0 0 -0 3.13879 92.3313 30.4203 90.0013 -0.158996 4.33842 15.7357 5.1072e-06 -5.51765e-07 68.0531 85.0254 -67.7336 8.98455 -0.406207 -4.3199e-07 1.47604 -3.73411 0.686646 16.3773 -1.3905e-06 -6.99897e-07 1.46748 -0.674759 -0.868589 6.45672 -1.25837e-06 -1.02172e-07 9.38095 1.35791 -0.62666 12.9942 -0.242716 4.98039 -91.635 7.55709 -92.755 5.34809 -7.22636e-06 -6.2814e-07 -53.5056 27.4228 -4.17486 24.3286 1.87007e-05 4.90208e-06 -1.41141 -2.05795 -34.4558 22.2916 -9.88446e-07 4.63217e-06 12.2779 5.54757 -8.59092 12.9945 -0.242716 -4.98039 87.1529 10.6692 -89.9641 -5.34813 -1.25947e-06 -3.79883e-06 -63.997 10.7648 15.7168 -24.3289 0.000322201 -8.65921e-06 4.25099 7.4948 -29.6833 -22.2915 -0.000108084 -4.47941e-06 4.84731 5.50193 -6.6112 -2.19248 -6.46944 -1.22534e-07 178.495 -0.969148 7.03846 39.0811 -6.73843e-06 -1.23785e-05 0.0137113 -0.0150874 17.8607 40.9854 -6.48686e-06 -1.26872e-05 4.89363 1.01384 -65.1614 11.7543 -2.30145e-07 3.05095e-06 -0.68787 -1.06342 -20.8938 -2.19251 6.46944 -1.45247e-06 179.006 16.1281 159.182 -39.0811 -0.00228153 -0.0401928 0.0285344 -0.0468773 32.046 -40.9854 7.72618e-06 5.99936e-06 -0.0464798 -0.762807 -52.4208 -11.7543 -5.6619e-06 -5.58687e-06 0.407216 -0.491834 -21.2698 
0 0 0 0 0 -0 2.86679 91.8486 33.9193 90.1748 1.26356 3.86071 15.7357 5.1072e-06 -5.51765e-07 64.2232 84.8881 -63.9959 8.98455 -0.406207 -4.3199e-07 1.45424 -4.45629 0.510818 16.3773 -1.3905e-06 -6.99897e-07 1.37474 -1.15794 -0.627966 6.45672 -1.25837e-06 -1.02172e-07 9.30449 1.48769 -0.583855 12.9942 -0.242716 4.98039 -91.5266 7.34218 -93.2203 5.34809 -7.22636e-06 -6.2814e-07 -50.2581 26.3974 -8.03295 24.3286 1.87007e-05 4.90208e-06 -1.46568 -1.9776 -36.5565 22.2916 -9.88446e-07 4.63217e-06 12.5684 5.54591 -8.51469 12.9945 -0.242716 -4.98039 87.1176 10.1693 -89.0825 -5.34813 -1.25947e-06 -3.79883e-06 -64.8716 9.12114 18.2187 -24.3289 0.000322201 -8.65921e-06 4.41694 8.1551 -28.576 -22.2915 -0.000108084 -4.47941e-06 4.66638 5.5004 -6.54874 -2.19248 -6.46944 -1.22534e-07 178.866 -0.703876 9.03008 39.0811 -6.73843e-06 -1.23785e-05 0.0136009 -0.0122098 17.5566 40.9854 -6.48686e-06 -1.26872e-05 4.34248 2.28642 -66.0262 11.7543 -2.30145e-07 3.05095e-06 -0.459699 -0.889153 -21.9955 -2.19251 6.46944 -1.45247e-06 -179.564 16.9855 159.575 -39.0811 -0.00228153 -0.0401928 0.00873901 -0.0300699 19.0162 -40.9854 7.72618e-06 5.99936e-06 -0.233123 0.610447 -51.0259 -11.7543 -5.6619e-06 -5.58687e-06 0.411668 -0.497704 -21.324 
